# xmcd
#
# Track frame offsets:
#	150
#	11291
#	24690
#	37798
#	49369
#	60575
#	71831
#	86376
#	119555
#	134783
#
# Disc length: 2076 seconds
#
# Revision: 0
# Processed by: cddbd v1.5.2PL0 Copyright (c) Steve Scherf et al.
# Submitted via: FairStars CD Ripper 1.60
#
DISCID=88081a0a
DTITLE=Bo Diddley - Diddley Daddy [disc 2]
DYEAR=2007
DGENRE=Blues
TTITLE0=Diddley Daddy
TTITLE1=I'm a Man
TTITLE2=Roller Coaster (w/ Little Walter)
TTITLE3=I'm Looking for a Woman
TTITLE4=Bring It to Jerome
TTITLE5=Who Do You Love
TTITLE6=Down Home Special
TTITLE7=Intro - Bo Diddley Vamp
TTITLE8=Road Runner
TTITLE9=Everleen
EXTD=
EXTT0=
EXTT1=
EXTT2=
EXTT3=
EXTT4=
EXTT5=
EXTT6=
EXTT7=
EXTT8=
EXTT9=
PLAYORDER=
